<svg width="954" height="300" viewBox="0 0 954 300" fill="none" xmlns="http://www.w3.org/2000/svg">
<path d="M15.0517 1.85128C6.76857 1.85418 0.0569154 8.57274 0.0625035 16.8558L0.143325 136.654L63.3706 73.7327C66.1776 70.9393 69.9756 69.3697 73.9357 69.3666L191.236 69.2744L259.706 1.76562L15.0517 1.85128Z" fill="#060606"/>
<path d="M87.675 119.563C83.6776 119.563 79.8458 121.16 77.0304 123.997L0.0527344 201.587V299.694C35.1241 264.139 70.1783 228.569 105.318 193.082C108.134 190.238 111.987 188.639 115.988 188.64C141.044 188.648 141.044 188.705 141.044 188.705L210.559 119.563H87.675Z" fill="#03F3BE"/>
<path d="M388.827 105.611H330.225V141.213H380.627V161.814H330.225V216.816H305.024V84.8107H388.827V105.611ZM434.54 92.0109C434.54 101.011 427.339 107.411 418.539 107.411C409.539 107.411 402.539 101.011 402.539 92.0109C402.539 83.2106 409.539 76.6104 418.539 76.6104C427.339 76.6104 434.54 83.2106 434.54 92.0109ZM406.139 216.816V122.412L430.54 121.612V216.816H406.139ZM521.372 122.412H545.773L508.971 216.816H481.969L444.968 122.412H471.37L492.97 181.414C494.77 186.414 495.17 188.615 495.97 193.415H496.571C497.57 188.215 497.97 185.815 499.57 181.414L521.372 122.412Z" fill="#060606"/>
<path d="M605.119 199.014C618.718 199.014 626.119 192.614 630.119 187.814L642.52 201.214C635.32 210.615 621.519 218.015 602.518 218.015C571.116 218.015 552.115 198.214 552.115 169.813C552.115 141.412 570.917 121.211 599.918 121.211C627.519 121.211 643.32 140.212 643.32 165.613C643.32 171.613 642.319 175.413 642.319 175.413H576.717C578.917 189.414 588.517 199.014 605.119 199.014ZM599.918 140.212C587.718 140.212 578.917 148.412 576.717 161.613H620.318C620.119 149.212 612.318 140.212 599.918 140.212ZM752.197 197.414L753.197 216.415C753.197 216.415 747.797 217.814 741.196 217.814C728.997 217.814 722.196 213.015 720.597 202.815C717.796 208.215 709.795 218.015 689.595 218.015C668.994 218.015 657.593 207.615 657.593 192.014C657.593 169.413 680.595 162.813 717.796 162.213H719.397V157.613C719.397 147.012 712.996 140.012 700.396 140.012C688.795 140.012 682.394 144.612 682.394 152.413C682.394 154.013 682.794 155.213 683.194 156.213L661.594 159.813C661.594 159.813 660.394 156.013 660.394 151.013C660.394 133.212 675.794 121.211 701.196 121.211C728.196 121.211 743.197 135.212 743.197 158.213V191.414C743.197 196.214 744.797 197.814 748.798 197.814C749.998 197.814 751.197 197.614 752.197 197.414ZM695.995 199.414C710.796 199.414 719.397 191.614 719.397 183.614V175.613H717.796C692.195 176.013 681.395 180.014 681.395 189.414C681.395 195.814 686.594 199.414 695.995 199.414ZM822.808 155.613C823.008 154.813 823.208 153.213 823.208 151.813C823.208 143.612 816.607 138.412 806.207 138.412C796.207 138.412 790.807 143.012 790.807 149.412C790.807 169.213 846.408 154.013 846.808 190.214C846.808 207.215 831.207 218.015 806.207 218.015C779.406 218.015 766.605 206.615 763.205 203.815L775.406 188.814C778.006 191.214 791.406 200.214 805.608 200.214C816.607 200.214 822.007 196.614 822.007 191.214C822.007 174.813 767.606 185.014 767.606 150.412C767.606 132.812 783.206 121.211 807.007 121.211C829.609 121.211 845.208 132.412 845.208 147.812C845.208 151.612 844.408 154.213 844.408 154.213L822.808 155.613ZM911.989 230.615C905.988 246.417 895.389 258.617 875.787 258.617C865.588 258.617 858.987 255.217 858.987 255.217L862.787 236.216C862.787 236.216 867.787 238.816 873.788 238.816C882.788 238.816 887.188 234.016 890.389 226.616L892.989 220.416L853.587 122.411H879.989L901.388 181.414C903.189 186.414 903.589 188.614 904.388 193.414H904.788C905.789 188.414 906.388 186.014 907.989 181.414L928.99 122.411H953.59L911.989 230.615Z" fill="#03F3BE"/>
</svg>
